HIERARCHY
ROOT root
{
	OFFSET	0	13.1	24.9
	CHANNELS 6  Xposition Yposition Zposition Xrotation Yrotation Zrotation
	JOINT spine_1
	{
		OFFSET	0	9.99999	0
		CHANNELS 3  Xrotation Yrotation Zrotation
		JOINT spine_2
		{
			OFFSET	0	112	-10
			CHANNELS 3  Xrotation Yrotation Zrotation
			JOINT spine_3
			{
				OFFSET	0	206.5	19.3
				CHANNELS 3  Xrotation Yrotation Zrotation
				JOINT spine_4
				{
					OFFSET	0	110.4	14.6
					CHANNELS 3  Xrotation Yrotation Zrotation
					JOINT neck_1
					{
						OFFSET	0	71.8	-50.3
						CHANNELS 3  Xrotation Yrotation Zrotation
						JOINT neck_2
						{
							OFFSET	0	86.2	-25.8
							CHANNELS 3  Xrotation Yrotation Zrotation
							JOINT head_ee
							{
								OFFSET	0	179.8	-8.7
								CHANNELS 3  Xrotation Yrotation Zrotation
								End Site
								{
									OFFSET	1	0	0
								}
							}
						}
					}
					JOINT left_clavicle
					{
						OFFSET	-43.2	22.4	-70.8
						CHANNELS 3  Xrotation Yrotation Zrotation
						JOINT left_shoulder
						{
							OFFSET	-93.9	-5.79999	48.7
							CHANNELS 3  Xrotation Yrotation Zrotation
							JOINT left_elbow
							{
								OFFSET	-291.4	-30.8	15.2
								CHANNELS 3  Xrotation Yrotation Zrotation
								JOINT left_lowarm_twist
								{
									OFFSET	-110.7	-3.89999	13.6
									CHANNELS 3  Xrotation Yrotation Zrotation
									JOINT left_hand
									{
										OFFSET	-110.7	-3.89999	13.6
										CHANNELS 3  Xrotation Yrotation Zrotation
										JOINT left_ee
										{
											OFFSET	-80.8	-5.10001	12.1
											CHANNELS 3  Xrotation Yrotation Zrotation
											End Site
											{
												OFFSET	1	0	0
											}
										}
									}
								}
							}
						}
					}
					JOINT right_clavicle
					{
						OFFSET	43.2	22.4	-70.8
						CHANNELS 3  Xrotation Yrotation Zrotation
						JOINT right_shoulder
						{
							OFFSET	93.9	-5.79999	48.7
							CHANNELS 3  Xrotation Yrotation Zrotation
							JOINT right_elbow
							{
								OFFSET	291.4	-30.8	15.2
								CHANNELS 3  Xrotation Yrotation Zrotation
								JOINT right_lowarm_twist
								{
									OFFSET	110.7	-3.89999	13.6
									CHANNELS 3  Xrotation Yrotation Zrotation
									JOINT right_hand
									{
										OFFSET	110.7	-3.89999	13.6
										CHANNELS 3  Xrotation Yrotation Zrotation
										JOINT right_ee
										{
											OFFSET	80.8	-5.10001	12.1
											CHANNELS 3  Xrotation Yrotation Zrotation
											End Site
											{
												OFFSET	1	0	0
											}
										}
									}
								}
							}
						}
					}
				}
			}
		}
	}
	JOINT left_hip
	{
		OFFSET	-82.8	-127.5	0.300001
		CHANNELS 3  Xrotation Yrotation Zrotation
		JOINT left_knee
		{
			OFFSET	-28.2	-396.7	2.2
			CHANNELS 3  Xrotation Yrotation Zrotation
			JOINT left_ankle
			{
				OFFSET	-11.7	-411.3	35.4
				CHANNELS 3  Xrotation Yrotation Zrotation
				JOINT left_toes
				{
					OFFSET	0	-60	-88.6
					CHANNELS 3  Xrotation Yrotation Zrotation
					JOINT left_foot_ee
					{
						OFFSET	-22.5	-16.5	-42.2
						CHANNELS 3  Xrotation Yrotation Zrotation
						End Site
						{
							OFFSET	1	0	0
						}
					}
				}
			}
		}
	}
	JOINT right_hip
	{
		OFFSET	82.8	-127.5	0.300001
		CHANNELS 3  Xrotation Yrotation Zrotation
		JOINT right_knee
		{
			OFFSET	28.2	-396.7	2.2
			CHANNELS 3  Xrotation Yrotation Zrotation
			JOINT right_ankle
			{
				OFFSET	11.7	-411.3	35.4
				CHANNELS 3  Xrotation Yrotation Zrotation
				JOINT right_toes
				{
					OFFSET	0	-60	-88.6
					CHANNELS 3  Xrotation Yrotation Zrotation
					JOINT right_foot_ee
					{
						OFFSET	22.5	-16.5	-42.2
						CHANNELS 3  Xrotation Yrotation Zrotation
						End Site
						{
							OFFSET	1	0	0
						}
					}
				}
			}
		}
	}
}
MOTION
Frames: 15
Frame Time: 0.02
2721.59 728.116 -1419.02 15.7128 56.9323 -12.7617 -3.10204 -0.0227877 -0.237766 -3.10201 -0.00761188 -0.238734 -3.10194 0.0553885 -0.232344 -3.10201 0.017999 -0.238176 -23.8447 17.9617 10.7286 -25.3398 29.9732 19.1275 -0.0 0.0 -0.0 4.99995 7.17512 9.82099 8.63806 -6.05943 56.7607 1.40717 -34.8772 0.44204 12.4364 0.269514 -1.56267 1.16391 -3.87636 6.20474 -0.0 0.0 -0.0 11.611 16.1216 -23.2665 -15.7739 13.1935 -51.3103 0.356522 10.016 -0.0312417 70.4323 2.78535 7.98123 -1.14181 -28.9523 -5.12629 0.0 0.0 0.0 -9.07367 15.0531 2.02608 -15.7028 0.322058 2.38071 35.7951 1.93338 -4.4835 -0.161995 0.0 0.0 -0.0 0.0 -0.0 17.3448 33.4888 -7.98241 -45.7426 0.87192 -6.78273 22.7191 -10.0738 3.06678 -20.8797 0.0 0.0 0.0 0.0 0.0 
2711.41 731.037 -1415.57 13.7955 55.1835 -11.0928 -3.13218 0.191007 -0.148111 -3.13219 0.200044 -0.135657 -3.13271 0.228703 -0.0781999 -3.13265 0.213483 -0.113338 -24.4501 18.4075 10.8838 -26.1398 30.8617 19.7699 -0.0 0.0 -0.0 4.96814 7.07913 9.76208 9.6215 -6.26817 55.4757 1.66232 -39.4671 0.596331 13.1047 0.274327 -1.6479 0.970647 -6.50568 3.79319 -0.0 0.0 -0.0 11.4497 16.0103 -22.9049 -15.7789 13.0196 -51.1413 0.314385 8.85216 -0.0243346 70.3683 2.77868 7.97644 -1.22674 -29.2417 -4.79306 0.0 0.0 0.0 -9.04893 17.3834 2.44486 -15.086 0.321794 2.28608 34.3404 0.55275 -4.35101 -1.3653 0.0 0.0 -0.0 0.0 -0.0 18.1768 32.6561 -8.29994 -40.2652 0.483726 -6.03537 22.637 -12.0941 3.0648 -20.6133 0.0 0.0 0.0 0.0 0.0 
2700.06 730.614 -1417.89 11.9251 54.9038 -9.86102 -3.15022 0.17516 0.0582242 -3.15023 0.1711 0.0692521 -3.15003 0.146796 0.111902 -3.15001 0.162626 0.0873136 -25.1228 18.6601 10.6577 -27.0274 31.5374 20.0062 -0.0 0.0 -0.0 4.91179 6.94227 9.65784 11.6427 -5.85726 53.9501 1.92721 -43.6673 0.772202 13.2461 0.275218 -1.66594 0.825915 -8.32451 2.04265 -0.0 0.0 -0.0 11.2739 16.0002 -22.5067 -15.7349 12.6154 -51.7822 0.29003 8.17604 -0.0207287 70.5121 2.79368 7.98719 -1.20175 -29.2345 -4.92389 0.0 0.0 0.0 -9.28195 18.6403 3.0011 -13.826 0.318088 2.0928 32.8685 0.185058 -4.20706 -2.63767 0.0 0.0 -0.0 0.0 -0.0 19.9796 31.8912 -9.13433 -35.2796 0.194081 -5.32625 22.7787 -14.2578 3.09474 -20.3475 0.0 0.0 0.0 0.0 0.0 
2684.36 728.761 -1415.55 13.4925 54.5808 -11.8352 -3.14885 0.141329 -0.0482976 -3.14886 0.144116 -0.0392066 -3.14898 0.149353 0.000163537 -3.14895 0.147505 -0.0234262 -25.1228 18.7754 10.0803 -27.1442 31.9886 19.5889 -0.0 0.0 -0.0 4.91312 7.14336 9.66306 12.3836 -6.33499 53.6333 2.06241 -45.6084 0.867212 13.4588 0.276474 -1.69308 0.737918 -9.61201 0.898594 -0.0 0.0 -0.0 11.1165 15.716 -22.1631 -16.3768 12.0725 -51.1629 0.264759 7.47209 -0.0172885 70.3151 2.77313 7.97246 -1.29899 -29.1971 -4.38679 0.0 0.0 0.0 -11.9859 18.8697 4.94644 -13.4052 0.315904 2.02827 31.4894 -0.786913 -4.07333 -3.60843 0.0 0.0 -0.0 0.0 -0.0 21.6611 31.1076 -9.73974 -31.1933 0.00348713 -4.72839 22.665 -15.9184 3.0938 -20.3165 0.0 0.0 0.0 0.0 0.0 
2669.61 725.818 -1416.21 14.5358 55.4242 -13.0049 -3.25616 0.14504 0.0799112 -3.25617 0.139661 0.0889785 -3.25595 0.111042 0.122849 -3.25595 0.12905 0.10377 -25.2619 19.4058 11.0748 -27.3731 32.8216 20.9224 -0.0 0.0 -0.0 4.93968 6.92232 9.70829 14.1867 -6.09039 52.4953 2.35984 -49.4479 1.08672 12.5553 0.270442 -1.57783 0.61964 -10.1798 -0.142755 -0.0 0.0 -0.0 10.8361 15.1665 -21.5542 -16.7521 10.0821 -51.5782 0.268062 7.56422 -0.0177207 70.8468 2.82871 8.01204 -1.28286 -29.0569 -4.41277 0.0 0.0 0.0 -14.4472 19.4919 6.21664 -11.8633 0.303853 1.79201 33.5514 2.42844 -4.26271 -3.84742 0.0 0.0 -0.0 0.0 -0.0 23.4434 30.6687 -10.7144 -26.8806 -0.15085 -4.08467 21.3632 -17.1066 2.94377 -20.8914 0.0 0.0 0.0 0.0 0.0 
2656.21 720.514 -1417.06 13.3181 55.2811 -11.6683 -3.2083 0.198097 0.0165666 -3.20832 0.196642 0.0291385 -3.20824 0.181926 0.0801239 -3.2082 0.192297 0.0503864 -27.3067 18.7062 11.0219 -29.5398 31.7684 21.2416 -0.0 0.0 -0.0 4.95599 7.64707 9.74687 15.8696 -6.95914 51.7658 2.63153 -52.4986 1.29786 11.9031 0.264959 -1.49471 0.812449 -9.82184 1.31195 -0.0 0.0 -0.0 10.3464 15.2933 -20.452 -17.3496 9.45573 -52.3891 0.302197 8.5141 -0.0224945 71.2364 2.86966 8.04071 -1.2117 -28.8632 -4.71224 0.0 0.0 0.0 -15.9266 20.9342 7.47698 -8.40881 0.253807 1.26438 33.2586 4.23516 -4.22778 -5.90284 0.0 0.0 -0.0 0.0 -0.0 24.2539 30.2789 -11.1653 -18.2264 -0.312531 -2.76776 12.8802 -18.6779 1.84559 -19.703 0.0 0.0 0.0 0.0 0.0 
2638.32 719.877 -1419.12 13.087 55.7316 -11.4026 -3.13304 0.217735 0.0505126 -3.13306 0.214079 0.0642653 -3.13284 0.189606 0.118363 -3.1328 0.205919 0.0869326 -26.4562 19.2062 11.0179 -28.7206 32.621 21.2408 -0.0 0.0 -0.0 4.97591 7.78694 9.78428 17.1363 -7.02159 51.7136 2.94392 -55.5499 1.55075 10.471 0.249602 -1.31243 0.868539 -8.43431 2.28383 -0.0 0.0 -0.0 10.2057 15.0826 -20.1473 -18.2795 9.08212 -53.0307 0.296861 8.36591 -0.0217113 71.0909 2.85434 8.03003 -1.38129 -29.0423 -3.87826 0.0 0.0 0.0 -17.2914 19.9808 8.07698 -7.244 0.22977 1.08726 33.8621 6.18102 -4.28676 -6.71558 0.0 0.0 -0.0 0.0 -0.0 24.9661 30.0096 -11.5374 -13.3536 -0.315603 -2.02036 7.71111 -18.7899 1.1242 -18.6985 0.0 0.0 0.0 0.0 0.0 
2622.81 717.128 -1420.76 12.2402 56.4897 -10.6058 -3.07508 0.185612 0.0443251 -3.07509 0.182415 0.0560462 -3.07493 0.161326 0.101934 -3.0749 0.175399 0.0751762 -26.3584 19.4106 11.1443 -28.6598 32.952 21.453 -0.0 0.0 -0.0 5.00437 7.97614 9.83735 18.0514 -7.30677 51.8962 3.19428 -57.6956 1.75986 9.11774 0.230907 -1.14059 0.952601 -7.51235 3.24445 -0.0 0.0 -0.0 9.95934 14.7789 -19.6121 -18.9759 8.28699 -53.6633 0.323696 9.11 -0.0257882 71.3383 2.88041 8.04816 -1.43552 -29.0862 -3.60682 0.0 0.0 0.0 -18.2619 20.1735 8.82292 -6.30823 0.207854 0.945328 35.8638 8.80659 -4.48909 -7.16621 0.0 0.0 -0.0 0.0 -0.0 25.4728 29.8508 -11.8939 -8.9855 -0.264373 -1.35225 2.33417 -19.0493 0.345647 -18.0578 0.0 0.0 0.0 0.0 0.0 
2607.12 718.077 -1420.78 11.3937 56.6408 -9.77555 -3.03285 0.176331 0.0693224 -3.03286 0.171563 0.0804023 -3.03263 0.144555 0.122484 -3.03261 0.162085 0.0981167 -25.567 19.4912 9.90077 -27.9345 33.4847 20.1136 -0.0 0.0 -0.0 4.97903 8.03547 9.79237 18.5748 -7.90744 52.1245 3.41624 -59.4065 1.94924 7.58289 0.204798 -0.946274 1.10004 -6.77442 4.55496 -0.0 0.0 -0.0 9.82107 14.89 -19.3007 -19.2523 7.78559 -54.2254 0.321809 9.05778 -0.0254903 71.2279 2.86877 8.04009 -1.44079 -28.7931 -3.44892 0.0 0.0 0.0 -18.847 20.0926 9.08906 -5.75804 0.193886 0.86205 35.2362 10.6445 -4.43875 -7.9381 0.0 0.0 -0.0 0.0 -0.0 25.672 30.0036 -11.7002 -3.09648 -0.11505 -0.461226 -1.0589 -16.9758 -0.157077 -17.738 0.0 0.0 0.0 0.0 0.0 
2596.41 711.807 -1423.98 10.8991 57.4612 -9.08451 -3.07895 0.0572204 -0.091179 -3.07895 0.0629063 -0.0873531 -3.07905 0.0836226 -0.0677867 -3.07905 0.0718675 -0.0801426 -26.5164 17.5835 11.1459 -28.2353 29.4772 20.2501 -0.0 0.0 -0.0 5.51545 8.64707 10.756 19.7472 -8.07873 50.9311 3.79351 -61.9639 2.27827 4.52824 0.137391 -0.561935 1.35904 -3.95027 7.49696 -0.0 0.0 -0.0 9.76737 15.2273 -19.1666 -19.3132 7.38317 -54.453 0.322885 9.08756 -0.0256599 70.934 2.83786 8.01848 -1.96273 -28.7017 -0.601541 0.0 0.0 0.0 -19.3494 17.0607 8.61079 -4.82084 0.168253 0.720506 35.0381 9.1824 -4.41084 -8.35676 0.0 0.0 -0.0 0.0 -0.0 25.8571 30.6043 -10.7793 7.20232 0.362835 1.0445 -7.01416 -6.20544 -1.04198 -17.9863 0.0 0.0 0.0 0.0 0.0 
2576.83 708.134 -1425.18 10.0741 57.8982 -8.49956 -3.09735 0.114443 -0.0779937 -3.09736 0.119174 -0.0705534 -3.09752 0.133522 -0.0367686 -3.0975 0.12604 -0.0573945 -26.314 18.0348 10.228 -28.2679 30.6607 19.6853 -0.0 0.0 -0.0 5.42812 8.90899 10.5991 20.8977 -8.17825 52.3726 3.92962 -62.7923 2.39887 3.32292 0.105169 -0.411343 1.46425 -4.25523 8.08498 -0.0 0.0 -0.0 10.0358 15.9157 -19.7306 -19.5484 6.99064 -54.6067 0.24223 6.84258 -0.0144815 71.7919 2.92839 8.08111 -2.14328 -28.6194 0.409137 0.0 0.0 0.0 -20.0963 17.4271 9.01087 -4.17048 0.149105 0.622534 34.6316 10.2729 -4.37686 -9.63749 0.0 0.0 -0.0 0.0 -0.0 27.5525 32.2329 -10.8812 7.63385 0.388722 1.10557 -9.27413 -3.65567 -1.38657 -19.2886 0.0 0.0 0.0 0.0 0.0 
2556.08 700.129 -1432.25 10.7821 59.1973 -9.02157 -3.16875 -0.113964 -0.0856363 -3.16875 -0.108284 -0.0927146 -3.16856 -0.0799789 -0.118003 -3.16857 -0.0976116 -0.103891 -24.4776 18.5428 8.42404 -26.5389 32.1377 17.7555 -0.0 0.0 -0.0 5.01404 7.89786 9.85401 21.5822 -8.51886 52.3687 3.96265 -62.9865 2.42827 1.54581 0.0518942 -0.190605 1.56447 -1.98666 9.70405 -0.0 0.0 -0.0 9.83643 14.8603 -19.336 -19.5362 6.63947 -54.8391 0.271084 7.64851 -0.0181208 71.8717 2.93687 8.08687 -2.28448 -28.909 1.02332 0.0 0.0 0.0 -21.8138 14.6553 8.75126 -3.714 0.135001 0.553898 38.1433 11.0318 -4.71767 -9.75862 0.0 0.0 -0.0 0.0 -0.0 27.9325 32.4617 -11.3202 7.78055 0.397627 1.12629 -5.93404 3.44963 -0.898958 -16.3004 0.0 0.0 0.0 0.0 0.0 
2537.13 696.524 -1433.17 11.1066 60.0577 -9.44622 -3.23126 -0.165454 0.00954745 -3.23128 -0.165726 -0.00100021 -3.23129 -0.159539 -0.0448736 -3.23126 -0.164624 -0.0191142 -22.1719 18.0329 7.18311 -23.8771 31.4374 15.4884 -0.0 0.0 -0.0 5.13408 7.67525 10.0686 21.8605 -8.86071 52.9139 4.1341 -63.9546 2.58168 -0.338626 -0.0120544 0.0415657 1.95708 -2.46419 12.1943 -0.0 0.0 -0.0 10.1356 14.9692 -19.9958 -19.9691 6.59076 -55.324 0.271955 7.67279 -0.0182367 70.7245 2.81589 8.00298 -2.58265 -28.7537 2.70376 0.0 0.0 0.0 -23.4453 15.2647 9.33556 -3.00384 0.111971 0.447342 38.7997 10.5341 -4.77355 -11.0434 0.0 0.0 -0.0 0.0 -0.0 28.4168 32.7455 -11.2468 8.03543 0.413226 1.16223 -9.67479 8.16521 -1.50643 -17.22 0.0 0.0 0.0 0.0 0.0 
2516.01 695.274 -1436.76 11.8387 60.984 -10.0729 -3.53324 -0.228827 -0.00811426 -3.53327 -0.227847 -0.0226588 -3.53321 -0.213265 -0.0833418 -3.53316 -0.223751 -0.0486144 -20.308 18.1032 6.31778 -21.8484 31.76 14.0975 -0.0 0.0 -0.0 5.27032 7.3881 10.3133 21.3983 -8.96077 53.4385 4.25788 -64.6142 2.6932 -3.00085 -0.115351 0.365765 2.15571 -1.92719 13.7832 -0.0 0.0 -0.0 10.2763 14.9648 -20.3095 -20.2171 6.40444 -55.1906 0.285215 8.04211 -0.0200495 71.0456 2.84958 8.0267 -2.77381 -29.1168 3.53701 0.0 0.0 0.0 -24.7183 14.3558 9.66856 -2.98784 0.111437 0.444945 39.0497 10.1236 -4.79298 -11.7614 0.0 0.0 -0.0 0.0 -0.0 29.0173 33.2429 -11.2355 5.94763 0.2902 0.865883 -8.52691 12.3953 -1.35944 -15.6507 0.0 0.0 0.0 0.0 0.0 
2493.77 690.186 -1438.47 11.6726 61.3059 -10.1145 -3.58962 -0.185098 -0.0630979 -3.58963 -0.180708 -0.0747484 -3.58941 -0.153693 -0.120918 -3.58938 -0.170861 -0.0951277 -18.4972 18.0011 5.19615 -19.8616 31.9085 12.415 -0.0 0.0 -0.0 5.44375 7.46974 10.6283 20.8615 -8.9912 53.7298 4.22353 -64.4343 2.66219 -5.40168 -0.221352 0.653802 2.39443 -0.775886 15.9064 -0.0 0.0 -0.0 10.0986 15.0858 -19.9085 -20.2377 6.81215 -55.8572 0.369409 10.3703 -0.0335224 70.4419 2.78635 7.98195 -3.15907 -28.7655 5.80482 0.0 0.0 0.0 -26.0058 13.6561 10.0869 -3.00205 0.111911 0.447074 39.9174 10.2921 -4.87145 -12.2065 0.0 0.0 -0.0 0.0 -0.0 29.3987 32.6915 -10.983 4.89087 0.232078 0.714261 -13.568 13.9178 -2.2009 -16.0129 0.0 0.0 0.0 0.0 0.0 
